<svg width="25" height="41" viewBox="0 0 25 41" fill="none" xmlns="http://www.w3.org/2000/svg">
<path d="M5.02073 23.7828L10.7669 26.9276L5.7462 27.1884L0 24.0398L5.02073 23.7828Z" fill="url(#paint0_linear_10991_981)"/>
<g style="mix-blend-mode:overlay" opacity="0.7">
<path d="M5.28942 23.9302L5.02073 23.7828L0 24.0398L0.264855 24.1873H0.27637L5.28942 23.9302Z" fill="white"/>
</g>
<path d="M18.5134 0L24.2596 3.14861L18.2716 17.8673L12.5254 14.7187L18.5134 0Z" fill="url(#paint1_linear_10991_981)"/>
<g style="mix-blend-mode:overlay" opacity="0.7">
<path d="M18.5134 0L12.5254 14.7187L12.7941 14.8661L18.7898 0.151194L18.5134 0Z" fill="white"/>
</g>
<path d="M19.2542 14.371L25.0004 17.5196L4.44531 41L2.01172 39.677L19.2542 14.371Z" fill="url(#paint2_linear_10991_981)"/>
<path d="M19.2538 14.371L2.01136 39.6771L5.02073 23.7828L0 24.0398L2.16106 8.24007L18.513 0L12.525 14.7187L19.2538 14.371Z" fill="url(#paint3_linear_10991_981)"/>
<g style="mix-blend-mode:overlay" opacity="0.7">
<path d="M19.2542 14.371L2.01172 39.677L2.28041 39.8207L2.28809 39.8245L19.5305 14.5222L19.2542 14.371Z" fill="white"/>
</g>
<path style="mix-blend-mode:overlay" opacity="0.4" d="M18.5129 0L6.46777 6.07043L15.2233 20.2902L19.2537 14.371L12.5249 14.7187L18.5129 0Z" fill="url(#paint4_linear_10991_981)"/>
<path style="mix-blend-mode:overlay" opacity="0.4" d="M5.76539 34.1698L10.5059 27.2111L1.55458 12.67L0 24.0398L5.02073 23.7828L3.69261 30.802L5.76539 34.1698Z" fill="url(#paint5_linear_10991_981)"/>
<defs>
<linearGradient id="paint0_linear_10991_981" x1="10.1013" y1="23.1963" x2="9.7825" y2="26.8916" gradientUnits="userSpaceOnUse">
<stop stop-color="#F3A500"/>
<stop offset="1" stop-color="#BC2D00"/>
</linearGradient>
<linearGradient id="paint1_linear_10991_981" x1="23.5341" y1="-3.0768" x2="16.6166" y2="13.5816" gradientUnits="userSpaceOnUse">
<stop stop-color="#F3A500"/>
<stop offset="1" stop-color="#BC2D00"/>
</linearGradient>
<linearGradient id="paint2_linear_10991_981" x1="23.5791" y1="9.78539" x2="15.218" y2="36.2526" gradientUnits="userSpaceOnUse">
<stop stop-color="#F3A500"/>
<stop offset="1" stop-color="#BC2D00"/>
</linearGradient>
<linearGradient id="paint3_linear_10991_981" x1="6.80178" y1="11.8196" x2="21.8232" y2="47.7056" gradientUnits="userSpaceOnUse">
<stop stop-color="#FCF06D"/>
<stop offset="1" stop-color="#E09531"/>
</linearGradient>
<linearGradient id="paint4_linear_10991_981" x1="9.13551" y1="14.9002" x2="17.3226" y2="6.39425" gradientUnits="userSpaceOnUse">
<stop stop-color="white"/>
<stop offset="1" stop-color="white" stop-opacity="0"/>
</linearGradient>
<linearGradient id="paint5_linear_10991_981" x1="8.40627" y1="15.9547" x2="1.84161" y2="27.3182" gradientUnits="userSpaceOnUse">
<stop stop-color="white"/>
<stop offset="1" stop-color="white" stop-opacity="0"/>
</linearGradient>
</defs>
</svg>
