<svg width="207" height="20" viewBox="0 0 207 20" fill="none" xmlns="http://www.w3.org/2000/svg">
    <path d="M0 10.343C0.246956 15.7361 3.43032 20 7.32073 20H199.662C203.715 20 207 15.374 207 9.66651H206.997C206.997 5.92663 205.589 2.65365 203.478 0.838496L198.255 8.19438L194.581 3.02049L190.447 8.84231L185.701 2.15817L179.808 10.4574L176.364 5.60743L172.92 10.4574L167.179 2.37256L164.652 5.9314L161.056 0.867079L155.467 8.73749L151.871 3.67318L149.496 7.01763L145.593 1.51977L137.785 12.5155L132.426 4.96904L128.674 10.2525L122.321 1.30538L115.968 10.2525L111.604 4.10672L105.328 12.9443L97.2128 1.51977L90.095 11.5436L86.3433 6.26013L81.9049 12.5107L73.7891 1.08147L65.0611 13.3683L58.6301 4.31158L54.7262 9.80943L47.7606 0L38.6503 12.8299L35.2065 7.97999L33.0617 11.0005L27.243 2.8061L20.6597 12.0772L16.678 6.46975L11.3972 13.9066L4.43168 4.09719L0 10.3383V10.343Z"
          fill="url(#paint0_linear_10969_47553)"/>
    <defs>
        <linearGradient id="paint0_linear_10969_47553" x1="-53.6513" y1="-624.1" x2="153.349" y2="-624.1"
                        gradientUnits="userSpaceOnUse">
            <stop stop-color="#F8EB52"/>
            <stop offset="1" stop-color="#FEF7D6"/>
        </linearGradient>
    </defs>
</svg>
