<svg width="14" height="13" viewBox="0 0 14 13" fill="none" xmlns="http://www.w3.org/2000/svg">
<path opacity="0.33" d="M6.99981 11.358C9.95907 11.358 12.358 8.95907 12.358 5.99981C12.358 3.04055 9.95907 0.641602 6.99981 0.641602C4.04055 0.641602 1.6416 3.04055 1.6416 5.99981C1.6416 8.95907 4.04055 11.358 6.99981 11.358Z" fill="#73E1FF"/>
<path opacity="0.57" d="M6.99925 10.3731C9.41454 10.3731 11.3725 8.41509 11.3725 5.9998C11.3725 3.58451 9.41454 1.62653 6.99925 1.62653C4.58396 1.62653 2.62598 3.58451 2.62598 5.9998C2.62598 8.41509 4.58396 10.3731 6.99925 10.3731Z" fill="#73E1FF" fill-opacity="0.48"/>
<path opacity="0.57" d="M6.99948 9.5042C8.93488 9.5042 10.5038 7.93525 10.5038 5.99984C10.5038 4.06444 8.93488 2.49548 6.99948 2.49548C5.06407 2.49548 3.49512 4.06444 3.49512 5.99984C3.49512 7.93525 5.06407 9.5042 6.99948 9.5042Z" fill="#73E1FF" fill-opacity="0.48"/>
<path d="M0.450195 11.4315C0.799181 10.8245 4.69387 7.15725 4.80958 5.70545C4.93363 4.14968 2.18556 1.18253 1.90878 0.610758C2.47592 0.94123 5.45726 3.91424 7.07012 3.8911C8.82554 3.8658 13.5571 0.317314 13.6876 0.480235C13.8181 0.642849 9.22729 4.59524 8.98908 6.46236C8.79067 8.0166 12.3719 11.6487 12.6209 12.2374C12.0889 11.8777 8.55616 8.13971 7.02229 7.95859C5.46004 7.77437 1.10219 11.1454 0.450195 11.4318V11.4315Z" fill="white"/>
</svg>
