<svg width="227" height="16" viewBox="0 0 227 16" fill="none" xmlns="http://www.w3.org/2000/svg">
<path d="M0.572266 8.21184C0.841975 12.382 4.31864 15.6791 8.56748 15.6791H218.63C223.057 15.6791 226.644 12.1021 226.644 7.68872H226.64C226.64 4.79685 225.103 2.26599 222.798 0.862421L217.093 6.55039L213.081 2.54966L208.566 7.05141L203.383 1.88287L196.947 8.30025L193.185 4.55002L189.424 8.30025L183.154 2.04864L180.395 4.80053L176.467 0.884524L170.364 6.97036L166.436 3.05435L163.842 5.64046L159.579 1.38922L151.052 9.89171L145.199 4.05638L141.102 8.14185L134.163 1.22344L127.225 8.14185L122.459 3.38959L115.605 10.2233L106.742 1.38922L98.9681 9.14019L94.8708 5.05472L90.0234 9.88802L81.1599 1.0503L71.6277 10.5511L64.6042 3.548L60.3406 7.79924L52.7333 0.21405L42.7836 10.1348L39.0225 6.38462L36.6801 8.72022L30.3253 2.38388L23.1355 9.55279L18.7869 5.21681L13.0195 10.9674L5.41225 3.38222L0.572266 8.20816V8.21184Z" fill="url(#paint0_linear_10924_27738)"/>
<defs>
<linearGradient id="paint0_linear_10924_27738" x1="113.606" y1="-2.17681" x2="113.606" y2="21.0171" gradientUnits="userSpaceOnUse">
<stop offset="0.17" stop-color="#80FFFF"/>
<stop offset="0.2" stop-color="#73FDFF"/>
<stop offset="0.27" stop-color="#53F8FF"/>
<stop offset="0.36" stop-color="#1FF1FF"/>
<stop offset="0.4" stop-color="#00EDFF"/>
<stop offset="0.61" stop-color="#1CDEFF"/>
<stop offset="0.67" stop-color="#24E0FF"/>
<stop offset="0.76" stop-color="#3CE6FF"/>
<stop offset="0.87" stop-color="#63F0FF"/>
<stop offset="0.99" stop-color="#98FEFF"/>
<stop offset="1" stop-color="#9CFFFF"/>
</linearGradient>
</defs>
</svg>
